<?xml version="1.0" encoding="UTF-8" standalone="no"?>
<svg
   xmlns:dc="http://purl.org/dc/elements/1.1/"
   xmlns:cc="http://creativecommons.org/ns#"
   xmlns:rdf="http://www.w3.org/1999/02/22-rdf-syntax-ns#"
   xmlns:svg="http://www.w3.org/2000/svg"
   xmlns="http://www.w3.org/2000/svg"
   xmlns:sodipodi="http://sodipodi.sourceforge.net/DTD/sodipodi-0.dtd"
   xmlns:inkscape="http://www.inkscape.org/namespaces/inkscape"
   width="22"
   height="22"
   viewBox="0 0 5.8208332 5.8208335"
   version="1.1"
   id="svg8"
   inkscape:version="1.0.2 (e86c870879, 2021-01-15)"
   sodipodi:docname="lock_open.svg">
  <defs
     id="defs2" />
  <sodipodi:namedview
     id="base"
     pagecolor="#ffffff"
     bordercolor="#666666"
     borderopacity="1.0"
     inkscape:pageopacity="0.0"
     inkscape:pageshadow="2"
     inkscape:zoom="32"
     inkscape:cx="17.77861"
     inkscape:cy="9.7772364"
     inkscape:document-units="mm"
     inkscape:current-layer="layer1"
     inkscape:document-rotation="0"
     showgrid="true"
     units="px"
     showguides="false"
     inkscape:window-width="1916"
     inkscape:window-height="1041"
     inkscape:window-x="0"
     inkscape:window-y="1218"
     inkscape:window-maximized="0"
     inkscape:snap-global="false"
     inkscape:snap-bbox="true"
     inkscape:snap-object-midpoints="true">
    <inkscape:grid
       type="xygrid"
       id="grid833"
       spacingx="0.13229167"
       spacingy="0.13229167"
       empspacing="4" />
    <sodipodi:guide
       position="0,5.8208333"
       orientation="0,22"
       id="guide1472" />
    <sodipodi:guide
       position="5.8208333,5.8208333"
       orientation="22,0"
       id="guide1474" />
    <sodipodi:guide
       position="5.8208333,0"
       orientation="0,-22"
       id="guide1476" />
    <sodipodi:guide
       position="0,0"
       orientation="-22,0"
       id="guide1478" />
    <sodipodi:guide
       position="0,5.8208333"
       orientation="0,22"
       id="guide1480" />
    <sodipodi:guide
       position="5.8208333,5.8208333"
       orientation="22,0"
       id="guide1482" />
    <sodipodi:guide
       position="5.8208333,0"
       orientation="0,-22"
       id="guide1484" />
    <sodipodi:guide
       position="0,0"
       orientation="-22,0"
       id="guide1486" />
  </sodipodi:namedview>
  <metadata
     id="metadata5">
    <rdf:RDF>
      <cc:Work
         rdf:about="">
        <dc:format>image/svg+xml</dc:format>
        <dc:type
           rdf:resource="http://purl.org/dc/dcmitype/StillImage" />
        <dc:title></dc:title>
        <cc:license
           rdf:resource="http://creativecommons.org/publicdomain/zero/1.0/" />
      </cc:Work>
      <cc:License
         rdf:about="http://creativecommons.org/publicdomain/zero/1.0/">
        <cc:permits
           rdf:resource="http://creativecommons.org/ns#Reproduction" />
        <cc:permits
           rdf:resource="http://creativecommons.org/ns#Distribution" />
        <cc:permits
           rdf:resource="http://creativecommons.org/ns#DerivativeWorks" />
      </cc:License>
    </rdf:RDF>
  </metadata>
  <g
     inkscape:label="Layer 1"
     inkscape:groupmode="layer"
     id="layer1">
    <path
       id="rect1153"
       style="fill:#000000;fill-opacity:0;stroke-width:0.387568;stroke-linecap:square;stroke-linejoin:round;paint-order:fill markers stroke"
       d="m 1.4746246,2.4691959 c -0.3218669,0 -0.58098708,0.2591201 -0.58098708,0.580987 v 2.1787013 c 0,0.3218668 0.25912018,0.580987 0.58098708,0.580987 h 2.904935 c 0.3218668,0 0.580987,-0.2591202 0.580987,-0.580987 V 3.0501829 c 0,-0.3218669 -0.2591202,-0.580987 -0.580987,-0.580987 z M 2.9202835,3.4842212 A 0.43574032,0.43574032 0 0 1 3.3560238,3.9199615 0.43574032,0.43574032 0 0 1 3.1477992,4.2910213 V 5.168743 H 2.7120589 V 4.3023688 A 0.43574032,0.43574032 0 0 1 2.4845434,3.9199615 0.43574032,0.43574032 0 0 1 2.9202835,3.4842212 Z" />
    <path
       id="path1186"
       style="fill:#000000;fill-opacity:0;stroke-width:0.355218;stroke-linecap:square;stroke-linejoin:round;paint-order:fill markers stroke"
       inkscape:transform-center-x="0.050087547"
       inkscape:transform-center-y="0.026899102"
       d="M 2.9270922,1.065666e-6 A 1.4553548,1.4553548 0 0 0 2.0175978,0.32396935 1.4553548,1.4553548 0 0 0 1.4780289,1.4802698 H 1.9421376 A 0.99155366,0.99155366 0 0 1 2.3092262,0.68481686 0.99155366,0.99155366 0 0 1 2.9356028,0.46354249 0.99155366,0.99155366 0 0 1 3.7038218,0.83119836 0.99155366,0.99155366 0 0 1 3.9245289,1.4802698 H 4.3880703 A 1.4553548,1.4553548 0 0 0 4.064102,0.53957007 1.4553548,1.4553548 0 0 0 2.9270922,1.065666e-6 Z" />
    <rect
       style="fill:#000000;fill-opacity:0;stroke-width:0.387567;stroke-linecap:square;stroke-linejoin:round;paint-order:fill markers stroke"
       id="rect1206"
       width="0.46566775"
       height="1.0175781"
       x="3.9232662"
       y="1.4533437"
       ry="0" />
  </g>
</svg>
