<?xml version="1.0" encoding="UTF-8" standalone="no"?>
<!-- Uploaded to: SVG Repo, www.svgrepo.com, Generator: SVG Repo Mixer Tools -->

<svg
   fill="#000000"
   width="800px"
   height="800px"
   viewBox="0 0 1024 1024"
   version="1.1"
   id="svg50"
   sodipodi:docname="bin.svg"
   inkscape:version="1.4 (e7c3feb100, 2024-10-09)"
   xmlns:inkscape="http://www.inkscape.org/namespaces/inkscape"
   xmlns:sodipodi="http://sodipodi.sourceforge.net/DTD/sodipodi-0.dtd"
   xmlns="http://www.w3.org/2000/svg"
   xmlns:svg="http://www.w3.org/2000/svg"
   xmlns:rdf="http://www.w3.org/1999/02/22-rdf-syntax-ns#"
   xmlns:cc="http://creativecommons.org/ns#">
  <defs
     id="defs54" />
  <sodipodi:namedview
     id="namedview52"
     pagecolor="#ffffff"
     bordercolor="#000000"
     borderopacity="0.25"
     inkscape:showpageshadow="2"
     inkscape:pageopacity="0.0"
     inkscape:pagecheckerboard="0"
     inkscape:deskcolor="#d1d1d1"
     showgrid="true"
     inkscape:zoom="1.09625"
     inkscape:cx="460.20525"
     inkscape:cy="364.88027"
     inkscape:window-width="1916"
     inkscape:window-height="1161"
     inkscape:window-x="1920"
     inkscape:window-y="18"
     inkscape:window-maximized="1"
     inkscape:current-layer="svg50">
    <inkscape:grid
       id="grid1"
       units="px"
       originx="0"
       originy="0"
       spacingx="1.28"
       spacingy="1.28"
       empcolor="#0099e5"
       empopacity="0.30196078"
       color="#0099e5"
       opacity="0.14901961"
       empspacing="5"
       enabled="true"
       visible="true" />
  </sodipodi:namedview>
  <path
     d="m 783.84676,314.77874 c 4.99662,0 9.04459,-4.01014 9.04459,-8.95999 v -73.087 c 0,-4.94988 -4.04797,-8.96 -9.04459,-8.96 H 221.49238 a 9.0427941,8.9582498 0 0 0 -9.04456,8.96 v 73.087 c 0,4.94985 4.04797,8.95999 9.04456,8.95999 z m 0,35.84001 H 221.49238 c -24.97675,0 -45.22279,-20.05676 -45.22279,-44.8 v -73.087 c 0,-24.74325 20.24604,-44.8 45.22279,-44.8 h 562.35438 c 24.97677,0 45.22281,20.05675 45.22281,44.8 v 73.087 c 0,24.74324 -20.24604,44.8 -45.22281,44.8 z"
     id="path44"
     style="fill:#000000;fill-opacity:1;stroke:none;stroke-width:0.878838;stroke-dasharray:none;stroke-opacity:1" />
  <path
     d="m 762.2679,335.70523 -51.44534,583.14374 c -0.48051,5.46527 -5.9302,10.41251 -11.47355,10.41251 H 305.99189 c -5.54331,0 -10.99391,-4.94724 -11.47351,-10.40639 L 243.07213,335.70523 c -0.86999,-9.85948 -9.64253,-17.1535 -19.59507,-16.29163 -9.95256,0.86188 -17.31539,9.55239 -16.44538,19.4119 l 51.44537,583.14372 c 2.10656,23.97587 23.21024,43.13226 47.51484,43.13226 h 393.35712 c 24.30464,0 45.4083,-19.15639 47.51576,-43.13838 l 51.44447,-583.1376 c 0.87001,-9.85951 -6.49282,-18.55089 -16.44537,-19.4119 -9.95256,-0.86098 -18.72597,6.43215 -19.59509,16.29163 z M 422.39999,204.8 v -90.80925 c 0,-5.01026 4.06386,-9.04925 9.04455,-9.04925 h 142.45184 c 4.98068,0 9.04455,4.03987 9.04455,9.04925 V 204.8 c 0,9.89712 8.0986,17.92 18.08913,17.92 9.99052,0 18.08912,-8.02288 18.08912,-17.92 v -90.80925 c 0,-24.776505 -20.23367,-44.889256 -45.2228,-44.889256 H 431.44454 c -24.98913,0 -45.22279,20.113627 -45.22279,44.889256 V 204.8 c 0,9.89712 8.09859,17.92 18.08912,17.92 9.99051,0 18.08912,-8.02288 18.08912,-17.92 z"
     id="path46"
     style="fill:#000000;fill-opacity:1;stroke-width:0.879118" />
  <path
     d="M 487.74693,428.57161 V 831.9151 c 0,9.89714 8.09859,17.92 18.08913,17.92 9.99053,0 18.08912,-8.02286 18.08912,-17.92 V 428.57161 c 0,-9.89712 -8.09859,-17.92 -18.08912,-17.92 -9.99054,0 -18.08913,8.02288 -18.08913,17.92 z m -169.96973,1.54613 35.2738,403.3435 c 0.86206,9.86036 9.63017,17.16051 19.58271,16.30649 9.95256,-0.854 17.32246,-9.54013 16.4604,-19.39963 l -35.2738,-403.34348 c -0.86207,-9.86037 -9.63017,-17.16051 -19.58271,-16.30652 -9.95255,0.85401 -17.32244,9.54015 -16.4604,19.39964 z m 333.74429,-3.09312 -35.27378,403.34348 c -0.86207,9.86039 6.50695,18.54563 16.46039,19.39963 9.95345,0.85402 18.72066,-6.44613 19.58271,-16.30649 l 35.27379,-403.3435 c 0.86206,-9.86037 -6.50695,-18.54563 -16.46041,-19.39964 -9.95342,-0.85399 -18.72064,6.44615 -19.5827,16.30652 z"
     id="path48"
     style="fill:#000000;fill-opacity:1;stroke-width:0.879118" />
  <metadata
     id="metadata1254">
    <rdf:RDF>
      <cc:License
         rdf:about="http://creativecommons.org/publicdomain/zero/1.0/">
        <cc:permits
           rdf:resource="http://creativecommons.org/ns#Reproduction" />
        <cc:permits
           rdf:resource="http://creativecommons.org/ns#Distribution" />
        <cc:permits
           rdf:resource="http://creativecommons.org/ns#DerivativeWorks" />
      </cc:License>
      <cc:Work
         rdf:about="">
        <cc:license
           rdf:resource="http://creativecommons.org/publicdomain/zero/1.0/" />
      </cc:Work>
    </rdf:RDF>
  </metadata>
</svg>
