<?xml version="1.0" encoding="UTF-8" standalone="no"?>
<svg
   xmlns:dc="http://purl.org/dc/elements/1.1/"
   xmlns:cc="http://creativecommons.org/ns#"
   xmlns:rdf="http://www.w3.org/1999/02/22-rdf-syntax-ns#"
   xmlns:svg="http://www.w3.org/2000/svg"
   xmlns="http://www.w3.org/2000/svg"
   xmlns:sodipodi="http://sodipodi.sourceforge.net/DTD/sodipodi-0.dtd"
   xmlns:inkscape="http://www.inkscape.org/namespaces/inkscape"
   width="22"
   height="22"
   viewBox="0 0 5.8208332 5.8208335"
   version="1.1"
   id="svg8"
   inkscape:version="1.0.2 (e86c870879, 2021-01-15)"
   sodipodi:docname="lock_closed.svg">
  <defs
     id="defs2" />
  <sodipodi:namedview
     id="base"
     pagecolor="#ffffff"
     bordercolor="#666666"
     borderopacity="1.0"
     inkscape:pageopacity="0.0"
     inkscape:pageshadow="2"
     inkscape:zoom="22.4"
     inkscape:cx="2.0990839"
     inkscape:cy="5.2182042"
     inkscape:document-units="mm"
     inkscape:current-layer="layer1"
     inkscape:document-rotation="0"
     showgrid="true"
     units="px"
     showguides="false"
     inkscape:window-width="1916"
     inkscape:window-height="1041"
     inkscape:window-x="0"
     inkscape:window-y="1218"
     inkscape:window-maximized="0"
     inkscape:snap-global="false"
     inkscape:snap-bbox="true"
     inkscape:snap-object-midpoints="true">
    <inkscape:grid
       type="xygrid"
       id="grid833"
       spacingx="0.13229167"
       spacingy="0.13229167"
       empspacing="4" />
    <sodipodi:guide
       position="0,5.8208333"
       orientation="0,22"
       id="guide1472" />
    <sodipodi:guide
       position="5.8208333,5.8208333"
       orientation="22,0"
       id="guide1474" />
    <sodipodi:guide
       position="5.8208333,0"
       orientation="0,-22"
       id="guide1476" />
    <sodipodi:guide
       position="0,0"
       orientation="-22,0"
       id="guide1478" />
    <sodipodi:guide
       position="0,5.8208333"
       orientation="0,22"
       id="guide1480" />
    <sodipodi:guide
       position="5.8208333,5.8208333"
       orientation="22,0"
       id="guide1482" />
    <sodipodi:guide
       position="5.8208333,0"
       orientation="0,-22"
       id="guide1484" />
    <sodipodi:guide
       position="0,0"
       orientation="-22,0"
       id="guide1486" />
  </sodipodi:namedview>
  <metadata
     id="metadata5">
    <rdf:RDF>
      <cc:Work
         rdf:about="">
        <dc:format>image/svg+xml</dc:format>
        <dc:type
           rdf:resource="http://purl.org/dc/dcmitype/StillImage" />
        <dc:title />
        <cc:license
           rdf:resource="http://creativecommons.org/publicdomain/zero/1.0/" />
      </cc:Work>
      <cc:License
         rdf:about="http://creativecommons.org/publicdomain/zero/1.0/">
        <cc:permits
           rdf:resource="http://creativecommons.org/ns#Reproduction" />
        <cc:permits
           rdf:resource="http://creativecommons.org/ns#Distribution" />
        <cc:permits
           rdf:resource="http://creativecommons.org/ns#DerivativeWorks" />
      </cc:License>
    </rdf:RDF>
  </metadata>
  <g
     inkscape:label="Layer 1"
     inkscape:groupmode="layer"
     id="layer1">
    <path
       id="rect1153"
       style="fill:#000000;fill-opacity:1;stroke-width:0.394158;stroke-linecap:square;stroke-linejoin:round;paint-order:fill markers stroke"
       d="m 1.4178523,2.4046825 c -0.3273397,0 -0.59086567,0.2635259 -0.59086567,0.5908655 v 2.215746 c 0,0.3273396 0.26352597,0.5908655 0.59086567,0.5908655 h 2.9543279 c 0.3273395,0 0.5908655,-0.2635259 0.5908655,-0.5908655 V 2.995548 c 0,-0.3273396 -0.263526,-0.5908655 -0.5908655,-0.5908655 z M 2.8880919,3.4369662 A 0.44314925,0.44314925 0 0 1 3.331241,3.8801155 0.44314925,0.44314925 0 0 1 3.119476,4.2574845 V 5.1501302 H 2.6763268 V 4.269025 A 0.44314925,0.44314925 0 0 1 2.4449428,3.8801155 0.44314925,0.44314925 0 0 1 2.8880919,3.4369662 Z" />
    <path
       id="path1186"
       style="fill:#000000;fill-opacity:1;stroke-width:0.361259;stroke-linecap:square;stroke-linejoin:round;paint-order:fill markers stroke"
       inkscape:transform-center-x="0.05093927"
       inkscape:transform-center-y="0.027356453"
       d="M 2.8889578,0.9133877 A 1.4801004,1.4801004 0 0 0 1.9639993,1.2428645 1.4801004,1.4801004 0 0 0 1.4152559,2.4188255 H 1.887256 A 1.0084131,1.0084131 0 0 1 2.2605861,1.6098474 1.0084131,1.0084131 0 0 1 2.8976132,1.3848107 1.0084131,1.0084131 0 0 1 3.6788944,1.7587178 1.0084131,1.0084131 0 0 1 3.9033541,2.4188255 h 0.471423 A 1.4801004,1.4801004 0 0 0 4.0453004,1.462131 1.4801004,1.4801004 0 0 0 2.8889578,0.9133877 Z" />
  </g>
</svg>
